<svg width="400" height="164" viewBox="0 0 400 164" fill="none" xmlns="http://www.w3.org/2000/svg">
<path d="M160.869 67.2199H172.688V114.195H160.869V109.228C158.868 111.215 156.521 112.819 153.943 113.962C151.558 114.939 149.001 115.43 146.423 115.407C140.353 115.407 135.105 113.054 130.679 108.347C126.254 103.64 124.039 97.7894 124.035 90.7962C124.035 83.5376 126.178 77.5935 130.465 72.964C134.752 68.3345 139.955 66.0156 146.074 66.0075C148.81 65.9859 151.52 66.5301 154.035 67.6057C156.611 68.743 158.941 70.3717 160.894 72.4006L160.869 67.2199ZM148.475 76.8893C146.773 76.8481 145.082 77.1716 143.516 77.8381C141.949 78.5045 140.544 79.4986 139.393 80.7533C136.985 83.3293 135.78 86.6341 135.78 90.6676C135.78 94.701 137.005 98.0385 139.455 100.68C140.596 101.944 141.995 102.949 143.557 103.627C145.119 104.305 146.809 104.641 148.512 104.611C150.229 104.654 151.936 104.332 153.519 103.666C155.103 103 156.527 102.005 157.697 100.747C160.147 98.1671 161.371 94.7929 161.371 90.6247C161.371 86.5422 160.147 83.2314 157.697 80.6921C156.508 79.4449 155.069 78.4618 153.475 77.8066C151.881 77.1515 150.167 76.8389 148.444 76.8893" fill="#432667"/>
<path d="M178.812 67.2197H183.172C183.172 62.5535 183.841 58.9119 185.18 56.2951C186.529 53.667 188.649 51.5134 191.255 50.1224C193.966 48.6241 197.295 47.875 201.243 47.875C205.325 47.875 208.718 48.6303 211.42 50.1408C213.951 51.4705 216.03 53.5233 217.391 56.0379C218.66 58.4547 219.295 62.182 219.295 67.2197V114.195H207.458V68.1261C207.458 64.2396 207.083 61.6778 206.331 60.4408C205.262 58.6527 203.572 57.7607 201.261 57.7648C200.05 57.7222 198.857 58.0619 197.85 58.7357C196.843 59.4095 196.074 60.3831 195.652 61.5186C195.174 62.7025 194.935 64.6029 194.935 67.2197H201.843V77.1952H194.935V114.195H183.147V77.1952H178.812V67.2197Z" fill="#432667"/>
<path d="M262.425 67.2199H274.213V114.195H262.425V109.228C260.424 111.215 258.077 112.819 255.499 113.962C253.111 114.939 250.553 115.43 247.973 115.407C241.91 115.407 236.664 113.054 232.235 108.347C227.806 103.64 225.591 97.7894 225.591 90.7962C225.591 83.5376 227.734 77.5935 232.021 72.964C236.307 68.3345 241.51 66.0156 247.63 66.0075C250.365 65.9859 253.076 66.5301 255.591 67.6057C258.167 68.743 260.497 70.3717 262.449 72.4006L262.425 67.2199ZM250.03 76.8893C248.329 76.8481 246.638 77.1716 245.071 77.8381C243.505 78.5045 242.099 79.4986 240.949 80.7533C238.544 83.3293 237.34 86.6341 237.336 90.6676C237.332 94.701 238.557 98.0385 241.01 100.68C242.151 101.945 243.549 102.951 245.112 103.629C246.674 104.307 248.364 104.642 250.067 104.611C251.784 104.653 253.491 104.331 255.075 103.665C256.658 102.999 258.082 102.004 259.253 100.747C261.702 98.1671 262.927 94.7929 262.927 90.6247C262.927 86.5422 261.702 83.2314 259.253 80.6921C258.063 79.4449 256.625 78.4618 255.031 77.8066C253.437 77.1515 251.723 76.8389 250 76.8893" fill="#432667"/>
<path d="M342.376 61.0461L333.858 69.4662C328.469 63.7507 322.188 60.893 315.016 60.893C308.765 60.893 303.529 62.9669 299.308 67.1147C297.265 69.0589 295.647 71.4059 294.557 74.0073C293.468 76.6087 292.929 79.4079 292.976 82.2279C292.927 85.1399 293.485 88.0302 294.617 90.7138C295.748 93.3974 297.428 95.8153 299.547 97.8127C303.923 102.075 309.327 104.206 315.756 104.206C319.933 104.206 323.456 103.326 326.326 101.567C329.196 99.807 331.509 97.0595 333.264 93.3241H314.893V81.983H346.846L346.932 84.659C346.941 90.2159 345.461 95.6736 342.646 100.464C340.008 105.199 336.146 109.137 331.464 111.867C326.883 114.479 321.515 115.788 315.358 115.792C309.207 115.902 303.131 114.425 297.716 111.505C292.567 108.651 288.323 104.407 285.469 99.2579C282.479 94.0405 280.922 88.125 280.956 82.1116C280.822 74.0147 283.778 66.171 289.223 60.1765C295.812 52.7873 304.385 49.0886 314.942 49.0804C320.263 49.0373 325.536 50.0791 330.441 52.1422C334.503 53.8691 338.477 56.835 342.364 61.04" fill="#432667"/>
<path d="M375.088 66.0079C379.474 65.9963 383.786 67.1434 387.587 69.3331C391.396 71.4647 394.552 74.5937 396.717 78.3839C398.888 82.1213 400.021 86.3706 399.999 90.6925C400.016 95.0549 398.877 99.3439 396.699 103.124C394.576 106.903 391.461 110.03 387.691 112.168C383.867 114.35 379.533 115.476 375.131 115.432C371.916 115.48 368.726 114.867 365.759 113.63C362.791 112.393 360.11 110.56 357.881 108.243C355.566 105.97 353.738 103.249 352.509 100.246C351.281 97.2437 350.677 94.0221 350.734 90.7782C350.701 84.273 353.244 78.019 357.807 73.3825C362.371 68.7459 368.583 66.1035 375.088 66.0324V66.0079ZM375.278 77.1347C373.57 77.0918 371.872 77.41 370.296 78.0684C368.719 78.7269 367.299 79.7108 366.129 80.9558C363.68 83.5033 362.455 86.7693 362.455 90.7537C362.455 94.8362 363.657 98.145 366.062 100.68C367.231 101.925 368.651 102.908 370.228 103.564C371.805 104.219 373.503 104.533 375.211 104.483C376.926 104.521 378.63 104.198 380.212 103.536C381.794 102.873 383.22 101.886 384.396 100.637C386.846 98.0777 388.07 94.7831 388.07 90.7537C388.07 86.7244 386.866 83.4584 384.457 80.9558C383.269 79.7143 381.833 78.7369 380.242 78.087C378.651 77.4371 376.941 77.1293 375.223 77.1836" fill="#432667"/>
<path d="M102.529 20.3069C102.529 20.3069 87.1643 20.6621 87.1643 37.1287C87.1643 37.1287 91.4509 86.8898 84.6536 94.8751C77.8563 102.86 57.8869 105.004 47.0786 98.6841C36.2703 92.3644 35.5967 102.009 35.5967 102.009C38.0462 116.002 53.5452 117.833 53.5452 117.833C53.5452 117.833 64.8251 119.413 76.5458 116.504C89.2892 113.289 87.1643 127.986 87.1643 127.986V145.683C87.1643 165.145 102.327 163.65 102.327 163.65C102.327 163.65 117.483 163.65 117.483 146.431V37.1287C117.483 20.9499 104.831 20.3008 102.786 20.3008H102.51" fill="url(#paint0_linear_229_33233)"/>
<path d="M102.664 20.3008C102.664 20.3008 87.1346 20.6621 87.1346 37.1287C87.1346 37.1287 90.2821 73.1115 86.9815 88.7882C86.2679 92.1136 84.362 95.0629 81.6232 97.0797L79.2656 98.831C118.574 85.7631 117.79 37.1287 117.79 37.1287C117.79 20.9499 104.997 20.3008 102.94 20.3008H102.664Z" fill="url(#paint1_linear_229_33233)"/>
<path d="M0 16.8279V126.148C0 143.392 15.1561 143.368 15.1561 143.368C15.1561 143.368 30.3184 144.862 30.3184 125.401V97.6791C30.3184 97.6791 29.8163 85.0336 40.7961 90.1898C47.6556 93.3362 55.0527 95.1445 62.5903 95.5174C62.5903 95.5174 81.2247 96.3502 81.886 81.7085C81.886 81.7085 81.2247 72.0575 70.4102 78.3833C59.5958 84.7091 42.4617 75.2235 35.6399 67.2382C28.8181 59.2529 30.3184 16.8279 30.3184 16.8279C30.3184 0.361298 14.9541 0 14.9541 0H14.6969C12.6577 0 0 0.649111 0 16.8279Z" fill="url(#paint2_linear_229_33233)"/>
<path d="M0.0488281 17.3179C0.0488281 17.2567 0.0488281 17.1893 0.0488281 17.1281V17.324V17.3179ZM0.0488281 17.1342C0.13456 17.7466 2.8841 68.9774 51.4879 78.659L46.8277 76.4606C43.0923 74.6235 36.246 69.4183 34.7273 66.3932C28.328 53.6743 30.355 17.324 30.355 17.324C30.3672 0.851311 15.009 0.496136 15.009 0.496136H14.7334C12.7126 0.490012 0.152931 1.133 0.0549518 17.1465" fill="url(#paint3_linear_229_33233)"/>
<defs>
<linearGradient id="paint0_linear_229_33233" x1="35.5967" y1="91.9847" x2="117.483" y2="91.9847" gradientUnits="userSpaceOnUse">
  <stop stop-color="#E61C83"/>
  <stop offset="1" stop-color="#844291"/>
</linearGradient>
<linearGradient id="paint1_linear_229_33233" x1="79.2656" y1="59.5659" x2="117.79" y2="59.5659" gradientUnits="userSpaceOnUse">
  <stop stop-color="#EA6B8B"/>
  <stop offset="1" stop-color="#E62384"/>
</linearGradient>
<linearGradient id="paint2_linear_229_33233" x1="0" y1="71.684" x2="81.886" y2="71.684" gradientUnits="userSpaceOnUse">
  <stop stop-color="#E61C83"/>
  <stop offset="1" stop-color="#EA6B8B"/>
</linearGradient>
<linearGradient id="paint3_linear_229_33233" x1="4.16395" y1="5051.38" x2="4326.07" y2="5051.38" gradientUnits="userSpaceOnUse">
  <stop stop-color="#E61C83"/>
  <stop offset="1" stop-color="#844291"/>
</linearGradient>
</defs>
</svg>
