<svg width="713" height="337" viewBox="0 0 713 337" fill="none" xmlns="http://www.w3.org/2000/svg">
<g clip-path="url(#clip0_32_1375)">
<path d="M321.83 143.2H341.13V219.91H321.83V211.8C318.562 215.044 314.729 217.664 310.52 219.53C306.624 221.124 302.449 221.927 298.24 221.89C288.327 221.89 279.757 218.047 272.53 210.36C265.303 202.673 261.687 193.12 261.68 181.7C261.68 169.847 265.18 160.14 272.18 152.58C279.18 145.02 287.677 141.233 297.67 141.22C302.137 141.185 306.563 142.073 310.67 143.83C314.877 145.687 318.681 148.347 321.87 151.66L321.83 143.2ZM301.59 158.99C298.811 158.923 296.05 159.451 293.492 160.539C290.934 161.628 288.639 163.251 286.76 165.3C282.827 169.507 280.86 174.903 280.86 181.49C280.86 188.077 282.86 193.527 286.86 197.84C288.724 199.904 291.008 201.545 293.559 202.653C296.11 203.76 298.869 204.308 301.65 204.26C304.454 204.33 307.242 203.804 309.828 202.716C312.414 201.629 314.739 200.004 316.65 197.95C320.65 193.737 322.65 188.227 322.65 181.42C322.65 174.753 320.65 169.347 316.65 165.2C314.708 163.163 312.359 161.558 309.755 160.488C307.152 159.418 304.353 158.908 301.54 158.99" fill="white"/>
<path d="M351.13 143.2H358.25C358.25 135.58 359.343 129.633 361.53 125.36C363.733 121.068 367.194 117.552 371.45 115.28C375.877 112.833 381.313 111.61 387.76 111.61C394.427 111.61 399.967 112.843 404.38 115.31C408.513 117.482 411.907 120.834 414.13 124.94C416.203 128.887 417.24 134.973 417.24 143.2V219.91H397.91V144.68C397.91 138.333 397.297 134.15 396.07 132.13C394.323 129.21 391.563 127.753 387.79 127.76C385.813 127.69 383.864 128.245 382.22 129.345C380.576 130.446 379.32 132.036 378.63 133.89C377.85 135.823 377.46 138.927 377.46 143.2H388.74V159.49H377.46V219.91H358.21V159.49H351.13V143.2Z" fill="white"/>
<path d="M487.67 143.2H506.92V219.91H487.67V211.8C484.402 215.044 480.569 217.664 476.36 219.53C472.461 221.126 468.283 221.928 464.07 221.89C454.17 221.89 445.603 218.047 438.37 210.36C431.137 202.673 427.52 193.12 427.52 181.7C427.52 169.847 431.02 160.14 438.02 152.58C445.02 145.02 453.517 141.233 463.51 141.22C467.977 141.185 472.403 142.073 476.51 143.83C480.717 145.687 484.521 148.347 487.71 151.66L487.67 143.2ZM467.43 158.99C464.651 158.923 461.89 159.451 459.332 160.539C456.774 161.628 454.479 163.251 452.6 165.3C448.673 169.507 446.707 174.903 446.7 181.49C446.693 188.077 448.693 193.527 452.7 197.84C454.562 199.906 456.847 201.548 459.398 202.656C461.95 203.763 464.709 204.31 467.49 204.26C470.294 204.329 473.081 203.802 475.667 202.715C478.253 201.627 480.578 200.003 482.49 197.95C486.49 193.737 488.49 188.227 488.49 181.42C488.49 174.753 486.49 169.347 482.49 165.2C480.548 163.163 478.199 161.558 475.595 160.488C472.992 159.418 470.193 158.908 467.38 158.99" fill="white"/>
<path d="M618.23 133.12L604.32 146.87C595.52 137.537 585.263 132.87 573.55 132.87C563.343 132.87 554.793 136.257 547.9 143.03C544.563 146.205 541.922 150.038 540.142 154.286C538.362 158.534 537.483 163.105 537.56 167.71C537.479 172.465 538.391 177.185 540.239 181.567C542.087 185.95 544.829 189.898 548.29 193.16C555.437 200.12 564.26 203.6 574.76 203.6C581.58 203.6 587.333 202.163 592.02 199.29C596.707 196.417 600.483 191.93 603.35 185.83H573.35V167.31H625.53L625.67 171.68C625.685 180.754 623.268 189.667 618.67 197.49C614.363 205.221 608.056 211.653 600.41 216.11C592.93 220.377 584.163 222.513 574.11 222.52C564.065 222.699 554.143 220.288 545.3 215.52C536.891 210.859 529.961 203.929 525.3 195.52C520.417 187 517.874 177.34 517.93 167.52C517.712 154.298 522.539 141.489 531.43 131.7C542.19 119.633 556.19 113.593 573.43 113.58C582.119 113.51 590.731 115.211 598.74 118.58C605.373 121.4 611.863 126.243 618.21 133.11" fill="white"/>
<path d="M671.65 141.22C678.813 141.201 685.853 143.074 692.06 146.65C698.28 150.131 703.435 155.241 706.97 161.43C710.515 167.533 712.365 174.472 712.33 181.53C712.357 188.654 710.497 195.658 706.94 201.83C703.473 208.001 698.387 213.108 692.23 216.6C685.986 220.163 678.908 222.002 671.72 221.93C666.471 222.008 661.261 221.007 656.415 218.987C651.569 216.967 647.19 213.973 643.55 210.19C639.77 206.478 636.785 202.035 634.779 197.131C632.772 192.228 631.786 186.967 631.88 181.67C631.826 171.047 635.979 160.834 643.431 153.263C650.882 145.691 661.027 141.376 671.65 141.26V141.22ZM671.96 159.39C669.171 159.32 666.398 159.84 663.824 160.915C661.249 161.99 658.931 163.597 657.02 165.63C653.02 169.79 651.02 175.123 651.02 181.63C651.02 188.297 652.983 193.7 656.91 197.84C658.819 199.873 661.138 201.478 663.713 202.549C666.289 203.619 669.062 204.131 671.85 204.05C674.651 204.112 677.433 203.585 680.017 202.503C682.601 201.421 684.929 199.809 686.85 197.77C690.85 193.59 692.85 188.21 692.85 181.63C692.85 175.05 690.883 169.717 686.95 165.63C685.009 163.603 682.664 162.006 680.065 160.945C677.467 159.884 674.675 159.381 671.87 159.47" fill="white"/>
<path d="M226.56 66.59C226.56 66.59 201.47 67.17 201.47 94.06C201.47 94.06 208.47 175.32 197.37 188.36C186.27 201.4 153.66 204.9 136.01 194.58C118.36 184.26 117.26 200.01 117.26 200.01C121.26 222.86 146.57 225.85 146.57 225.85C146.57 225.85 164.99 228.43 184.13 223.68C204.94 218.43 201.47 242.43 201.47 242.43V271.33C201.47 303.11 226.23 300.67 226.23 300.67C226.23 300.67 250.98 300.67 250.98 272.55V94.06C250.98 67.64 230.32 66.58 226.98 66.58H226.53" fill="white"/>
<path d="M226.78 66.58C226.78 66.58 201.42 67.17 201.42 94.06C201.42 94.06 206.56 152.82 201.17 178.42C200.005 183.85 196.892 188.667 192.42 191.96L188.57 194.82C252.76 173.48 251.48 94.06 251.48 94.06C251.48 67.64 230.59 66.58 227.23 66.58H226.78Z" fill="white"/>
<path d="M59.13 60.9099V239.43C59.13 267.59 83.88 267.55 83.88 267.55C83.88 267.55 108.64 269.99 108.64 238.21V192.94C108.64 192.94 107.82 172.29 125.75 180.71C136.952 185.848 149.031 188.801 161.34 189.41C161.34 189.41 191.77 190.77 192.85 166.86C192.85 166.86 191.77 151.1 174.11 161.43C156.45 171.76 128.47 156.27 117.33 143.23C106.19 130.19 108.64 60.9099 108.64 60.9099C108.64 34.0199 83.55 33.4299 83.55 33.4299H83.13C79.8 33.4299 59.13 34.4899 59.13 60.9099Z" fill="white"/>
<path d="M59.21 61.7099C59.21 61.6099 59.21 61.4999 59.21 61.3999V61.7199V61.7099ZM59.21 61.4099C59.35 62.4099 63.84 146.07 143.21 161.88L135.6 158.29C129.5 155.29 118.32 146.79 115.84 141.85C105.39 121.08 108.7 61.7199 108.7 61.7199C108.72 34.8199 83.64 34.2399 83.64 34.2399H83.19C79.89 34.2299 59.38 35.2799 59.22 61.4299" fill="white"/>
</g>
<defs>
<clipPath id="clip0_32_1375">
<rect width="712.33" height="336.53" fill="white"/>
</clipPath>
</defs>
</svg>
